<?xml version="1.0" standalone="no"?>
<!DOCTYPE svg PUBLIC "-//W3C//DTD SVG 20010904//EN"
 "http://www.w3.org/TR/2001/REC-SVG-20010904/DTD/svg10.dtd">
<svg version="1.0" xmlns="http://www.w3.org/2000/svg"
 width="1024.000000pt" height="1024.000000pt" viewBox="0 0 1024.000000 1024.000000"
 preserveAspectRatio="xMidYMid meet">

<g transform="translate(0.000000,1024.000000) scale(0.100000,-0.100000)"
fill="#C11119" stroke="none">
<path d="M1135 6007 c-117 -31 -201 -101 -257 -214 -29 -60 -33 -78 -36 -169
-9 -221 50 -317 334 -546 207 -167 234 -203 234 -311 0 -92 -49 -145 -142
-153 -104 -10 -164 55 -170 185 l-3 63 -74 -6 c-41 -3 -105 -6 -143 -6 l-68 0
0 -42 c0 -48 24 -167 42 -213 41 -105 118 -179 226 -217 78 -27 241 -27 332 1
205 63 318 257 280 481 -26 156 -111 273 -304 417 -222 167 -281 251 -262 378
14 92 100 136 189 97 53 -24 77 -68 85 -159 l5 -63 76 0 c42 0 105 3 141 6
l66 6 -7 72 c-19 191 -105 324 -249 380 -59 24 -226 31 -295 13z"/>
<path d="M1760 5855 l0 -135 150 0 150 0 0 -670 0 -670 140 0 140 0 0 670 0
670 140 0 140 0 0 135 0 135 -430 0 -430 0 0 -135z"/>
<path d="M2760 5203 c0 -435 2 -792 4 -794 2 -2 65 -3 140 -1 l136 3 0 295 0
294 29 0 c16 0 42 3 59 6 l30 6 98 -301 98 -301 138 0 c76 0 138 1 138 3 0 1
-49 150 -109 330 l-108 329 37 23 c73 46 130 137 150 243 16 81 8 309 -14 377
-38 121 -122 213 -230 251 -43 15 -94 18 -323 22 l-273 4 0 -789z m480 506
c72 -40 85 -75 85 -216 0 -107 -2 -125 -21 -150 -35 -49 -97 -73 -186 -73
l-78 0 0 236 0 237 79 -6 c57 -3 91 -12 121 -28z"/>
<path d="M3790 5200 l0 -790 108 0 c60 0 217 3 350 7 l242 6 0 134 0 135 -210
-4 -210 -3 0 198 0 197 170 0 170 0 0 130 0 130 -167 2 -168 3 -3 187 -2 188
207 2 208 3 3 133 3 132 -351 0 -350 0 0 -790z"/>
<path d="M4781 5218 c-85 -425 -156 -779 -159 -785 -3 -10 29 -13 140 -13
l144 0 25 153 24 152 156 3 156 2 21 -137 c12 -76 22 -146 22 -155 0 -16 14
-18 145 -18 80 0 145 2 145 5 0 2 -68 332 -150 732 -83 400 -155 752 -161 781
l-10 52 -172 0 -172 0 -154 -772z m378 70 c25 -134 46 -255 49 -270 l4 -27
-101 -3 c-79 -2 -101 0 -101 10 0 8 18 107 39 220 22 114 43 231 47 260 3 28
9 52 13 52 3 0 26 -109 50 -242z"/>
<path d="M5720 5205 l0 -785 134 0 134 0 -4 518 -4 517 54 -210 c30 -115 84
-340 121 -500 37 -159 68 -291 68 -291 1 -1 33 -3 71 -5 l70 -4 32 130 c17 72
71 290 118 485 48 195 91 364 97 375 6 13 8 -166 6 -496 l-4 -516 96 -7 c53
-3 113 -6 134 -6 l37 0 0 790 0 790 -185 0 -184 0 -10 -37 c-28 -112 -162
-670 -177 -740 -11 -46 -21 -83 -25 -83 -3 0 -13 33 -22 73 -9 39 -54 232
-100 427 l-84 355 -187 3 -186 2 0 -785z"/>
<path d="M7092 5198 l3 -793 143 -3 142 -3 0 796 0 795 -145 0 -145 0 2 -792z"/>
<path d="M7590 5190 l0 -800 38 0 c20 0 81 -3 135 -7 l97 -6 0 341 0 342 160
0 160 0 0 133 0 132 -160 -3 -160 -3 0 200 0 201 215 0 215 0 0 135 0 135
-350 0 -350 0 0 -800z"/>
<path d="M8395 5973 c18 -45 197 -514 281 -737 l94 -249 0 -313 0 -314 135 0
135 0 0 319 0 319 36 94 c20 51 101 264 181 473 80 209 149 390 154 403 l9 23
-152 -3 -151 -3 -107 -320 -107 -320 -37 120 c-21 66 -66 211 -102 323 l-65
202 -155 0 c-145 0 -156 -1 -149 -17z"/>
</g>
</svg>
